<svg width="30" height="21" viewBox="0 0 30 21" fill="none" xmlns="http://www.w3.org/2000/svg">
<path d="M25.4348 2.55248C23.5515 1.8001 21.5328 1.24399 19.4218 0.927777C19.403 0.92458 19.3835 0.926641 19.3661 0.933674C19.3487 0.940707 19.3342 0.952364 19.3246 0.967032C19.0661 1.36939 18.778 1.89388 18.5762 2.30823C16.3373 2.0119 14.0611 2.0119 11.8222 2.30823C11.5973 1.84902 11.3438 1.40126 11.0627 0.967032C11.0532 0.952184 11.0388 0.940262 11.0214 0.932859C11.004 0.925455 10.9845 0.922922 10.9655 0.925597C8.85567 1.24181 6.83698 1.79792 4.95246 2.55139C4.93625 2.55741 4.9225 2.56769 4.91307 2.58083C1.08248 7.56944 0.0325122 12.4348 0.548263 17.2391C0.549699 17.2509 0.553822 17.2623 0.560382 17.2726C0.566942 17.2829 0.575801 17.2919 0.586422 17.2991C2.82224 18.7411 5.31599 19.8396 7.96326 20.5485C7.98172 20.5536 8.00146 20.5535 8.0199 20.5485C8.03835 20.5434 8.05464 20.5336 8.06666 20.5202C8.63534 19.8441 9.14248 19.1299 9.57576 18.3797C9.60161 18.3361 9.57699 18.2838 9.52529 18.2663C8.73013 18.001 7.95968 17.6809 7.22103 17.3089C7.20775 17.3022 7.19657 17.2927 7.18848 17.2812C7.18039 17.2697 7.17564 17.2566 7.17466 17.2431C7.17369 17.2296 7.17651 17.2161 7.18288 17.2038C7.18926 17.1915 7.19898 17.1808 7.21118 17.1726C7.36627 17.0712 7.52137 16.9655 7.66908 16.8597C7.68237 16.8502 7.69839 16.8441 7.71534 16.8422C7.73229 16.8403 7.74951 16.8426 7.76509 16.8488C12.5989 18.7723 17.8339 18.7723 22.6111 16.8488C22.6267 16.8422 22.6441 16.8396 22.6613 16.8413C22.6785 16.8431 22.6948 16.8491 22.7083 16.8586C22.856 16.9655 23.0099 17.0712 23.1662 17.1726C23.1785 17.1806 23.1884 17.1912 23.195 17.2034C23.2016 17.2156 23.2046 17.229 23.2039 17.2425C23.2032 17.256 23.1987 17.2692 23.1908 17.2808C23.183 17.2924 23.172 17.302 23.1588 17.3089C22.4228 17.684 21.6571 18.0013 20.8534 18.2652C20.841 18.2692 20.8298 18.2754 20.8204 18.2836C20.811 18.2917 20.8036 18.3015 20.7989 18.3123C20.7941 18.3232 20.792 18.3348 20.7927 18.3464C20.7934 18.358 20.7968 18.3694 20.8029 18.3797C21.246 19.1288 21.7531 19.8419 22.3108 20.5191C22.3223 20.533 22.3385 20.5434 22.357 20.5488C22.3755 20.5543 22.3955 20.5546 22.4141 20.5496C25.066 19.8426 27.5638 18.7437 29.8021 17.2991C29.813 17.2924 29.8222 17.2836 29.8289 17.2735C29.8357 17.2633 29.84 17.252 29.8415 17.2402C30.4569 11.6857 28.81 6.85958 25.473 2.58301C25.4648 2.56911 25.4512 2.55828 25.4348 2.55248ZM10.2983 14.3136C8.84337 14.3136 7.64323 13.1479 7.64323 11.7184C7.64323 10.2878 8.81998 9.12326 10.2983 9.12326C11.7877 9.12326 12.9768 10.2976 12.9534 11.7184C12.9534 13.149 11.7766 14.3136 10.2983 14.3136ZM20.1148 14.3136C18.6586 14.3136 17.4597 13.1479 17.4597 11.7184C17.4597 10.2878 18.6353 9.12326 20.1148 9.12326C21.6042 9.12326 22.7933 10.2976 22.7699 11.7184C22.7699 13.149 21.6054 14.3136 20.1148 14.3136Z" fill="#333456"/>
</svg>
