<svg width="32" height="23" viewBox="0 0 32 23" fill="none" xmlns="http://www.w3.org/2000/svg">
<path d="M31.1903 2.78388C30.065 3.22562 28.856 3.5241 27.5851 3.65901C28.8965 2.96391 29.8776 1.8699 30.3453 0.581122C29.1132 1.2294 27.7648 1.68572 26.3587 1.93024C25.4131 1.03584 24.1606 0.443019 22.7957 0.243813C21.4307 0.0446072 20.0298 0.250161 18.8103 0.828562C17.5907 1.40696 16.6209 2.32585 16.0513 3.44256C15.4817 4.55927 15.3442 5.81132 15.6602 7.00433C13.1638 6.8933 10.7216 6.31849 8.49215 5.31723C6.26271 4.31597 4.29583 2.91062 2.71918 1.1924C2.18008 2.0162 1.8701 2.97132 1.8701 3.98853C1.8695 4.90425 2.12406 5.80594 2.6112 6.61361C3.09834 7.42127 3.80299 8.10994 4.66263 8.61849C3.66567 8.59039 2.69071 8.35176 1.81889 7.92245V7.99408C1.81879 9.27841 2.32029 10.5232 3.23831 11.5173C4.15633 12.5114 5.43431 13.1935 6.85542 13.4478C5.93057 13.6696 4.96094 13.7022 4.01976 13.5434C4.42071 14.6484 5.20173 15.6148 6.25347 16.3072C7.30521 16.9995 8.57503 17.3832 9.88515 17.4044C7.66114 18.951 4.91451 19.79 2.08709 19.7863C1.58624 19.7864 1.08582 19.7605 0.588394 19.7087C3.45839 21.3433 6.79927 22.2109 10.2113 22.2075C21.7615 22.2075 28.0757 13.7332 28.0757 6.3835C28.0757 6.14472 28.069 5.90355 28.0568 5.66477C29.285 4.87796 30.3452 3.90364 31.1876 2.78746L31.1903 2.78388Z" fill="#333456"/>
</svg>
